<svg xmlns="http://www.w3.org/2000/svg" enable-background="new 0 0 64 64" viewBox="0 0 64 64" id="Delete"><g transform="translate(232 228)" fill="#000000" class="color000000 svgShape"><path fill="#061b4c" d="M-207.5-205.1h3v24h-3zM-201.5-205.1h3v24h-3zM-195.5-205.1h3v24h-3zM-219.5-214.1h39v3h-39z" class="color134563 svgShape"></path><path fill="#061b4c" d="M-192.6-212.6h-2.8v-3c0-.9-.7-1.6-1.6-1.6h-6c-.9 0-1.6.7-1.6 1.6v3h-2.8v-3c0-2.4 2-4.4 4.4-4.4h6c2.4 0 4.4 2 4.4 4.4v3" class="color134563 svgShape"></path><path fill="#061b4c" d="M-191-172.1h-18c-2.4 0-4.5-2-4.7-4.4l-2.8-36 3-.2 2.8 36c.1.9.9 1.6 1.7 1.6h18c.9 0 1.7-.8 1.7-1.6l2.8-36 3 .2-2.8 36c-.2 2.5-2.3 4.4-4.7 4.4" class="color134563 svgShape"></path></g></svg>