<svg xmlns="http://www.w3.org/2000/svg" viewBox="0 0 24 24" id="files"><g data-name="Layer 2" fill="#061b4c" class="color000000 svgShape"><path fill="none" d="M0 0h24v24H0z"></path><path fill="#175dff" d="M1 12C1 4 4 1 12 1s11 3 11 11-3 11-11 11S1 20 1 12" class="colorff9d17 svgShape"></path><path fill="#83a8ff" fill-rule="evenodd" d="M7.64 8.63h4.65l-.21-.73a1 1 0 0 0-1-.71H7a1 1 0 0 0-1 1v2.07a1.63 1.63 0 0 1 1.64-1.63Z" class="colorffcb83 svgShape"></path><path fill="#ffffff" fill-rule="evenodd" d="M17 16.81H7a1 1 0 0 1-1-1V9.63a1 1 0 0 1 1-1h10a1 1 0 0 1 1 1v6.18a1 1 0 0 1-1 1Z" class="colorffffff svgShape"></path></g></svg>