<svg xmlns="http://www.w3.org/2000/svg" data-name="Layer 1" viewBox="0 0 512 512" id="house"><path d="M255.88281,168.96308a35,35,0,1,0,35,35A35.03964,35.03964,0,0,0,255.88281,168.96308Zm0,55a20,20,0,1,1,20-20A20.0226,20.0226,0,0,1,255.88281,223.96308Zm235.21387,225.96a56.36254,56.36254,0,0,0-40.21436-12.22022v-195.71l10.27539,6.68213A17.49541,17.49541,0,0,0,488.2002,234.01v-19.6958a23.7644,23.7644,0,0,0,12.79589-21.06006v-9.69922a35.80181,35.80181,0,0,0-17.23584-30.50683c-9.76953-5.88575-26.01263-15.6709-45.73486-27.54883V69.9416a23.52173,23.52173,0,0,0,6.36182-16.32813l-.2666-35.41015A18.3914,18.3914,0,0,0,425.7793.00019H362.69775A18.3406,18.3406,0,0,0,344.35693,18.509l.25782,28.30567A19.97,19.97,0,0,0,349.894,60.134l-.09631,12.24658c-31.50317-18.959-62.31525-37.49072-85.48377-51.40185a7.39921,7.39921,0,0,0-.66113-.35352,18.20348,18.20348,0,0,0-15.57763,0,7.28882,7.28882,0,0,0-.65625.35059L166.81836,69.29219a7.49979,7.49979,0,1,0,7.71191,12.86523l80.18848-48.06934a3.24078,3.24078,0,0,1,2.28857-.001c63.49219,38.124,183.63916,110.498,219.0127,131.80859a20.72577,20.72577,0,0,1,9.97607,17.65918v9.69922a8.73647,8.73647,0,0,1-15.666,5.33008,56.82951,56.82951,0,0,0-18.30469-15.18067c-.33105-.17968-.65918-.36621-.98633-.5625-4.73828-2.84668-8.83594-8.58593-13.17431-14.66211-5.31543-7.44433-10.81153-15.14257-18.97852-20.0498-7.79394-4.68359-16.93066-5.8916-25.76611-7.05957-7.64551-1.01074-14.86719-1.96582-19.977-5.03711-5.51368-3.31348-9.89161-9.44727-14.52637-15.94043-5.02881-7.0459-10.22852-14.331-17.61768-18.77246-8.91162-5.35742-19.20361-6.71484-28.28369-7.91309-6.91064-.91113-13.43847-1.77246-17.45508-4.18652-8.69775-5.22852-12.01513-12.57031-15.22363-19.6709-4.06494-8.99707-9.63183-21.31738-27.73242-16.60742-15.26563,3.97168-19.87842,13.49414-23.585,21.14648-2.84082,5.86329-5.294,10.92774-12.32569,15.15235-8.019,4.81836-12.93066,4.89355-19.14843,4.98926-7.10791.11035-15.16407.23437-26.64258,7.13086-11.47754,6.89648-15.36914,13.95117-18.80225,20.1748-3.00341,5.44434-5.37549,9.74512-13.39306,14.5625-8.01807,4.81738-12.92871,4.89258-19.14551,4.98828-7.10791.10938-15.16358.23242-26.6416,7.12891-11.47754,6.89648-15.36866,13.95117-18.80176,20.1748-3.00293,5.44434-5.375,9.74512-13.38623,14.5586-.62549.375-1.248.72265-1.853,1.03418A60.97329,60.97329,0,0,0,40.18262,198.924a8.70668,8.70668,0,0,1-6.646,3.07617h-.03418A9.01532,9.01532,0,0,1,24.793,192.7707v-9.1748a20.72016,20.72016,0,0,1,10.01611-17.68262L145.958,99.28437a7.4998,7.4998,0,1,0-7.71192-12.86523L27.09717,153.04805A35.79344,35.79344,0,0,0,9.793,183.5959v9.1748a24.31246,24.31246,0,0,0,13.76709,21.97315v16.9165a17.50191,17.50191,0,0,0,26.92822,14.74023l10.39453-6.6416v24.94287c-3.891,2.14649-8.1582,6.32862-11.68066,14.2837L2.89258,383.57637C.32324,389.37812,1.75488,397.8918,7.917,400.8332a146.64963,146.64963,0,0,0,36.54834,12.01319v26.43212a56.53259,56.53259,0,0,0-24.52392,11.97754A55.71717,55.71717,0,0,0,0,494.04316v.457a17.52,17.52,0,0,0,17.5,17.5h477a17.52,17.52,0,0,0,17.5-17.5v-.97949A55.62139,55.62139,0,0,0,491.09668,449.92305ZM423.02539,116.46553C404.976,105.5959,384.93561,93.52949,364.728,81.3664l.11529-14.6621a20.09952,20.09952,0,0,0,19.93213-20.07325V44.36738a6.105,6.105,0,1,1,12.21,0v9.42481a23.72774,23.72774,0,0,0,23.70117,23.70117q1.17948,0,2.33887-.11377Zm3.83691-56.54444a8.70079,8.70079,0,0,1-14.877-6.1289V44.36738a21.105,21.105,0,1,0-42.21,0v2.26367a5.08092,5.08092,0,0,1-10.16162.04688L359.356,18.37226a3.34185,3.34185,0,0,1,3.34179-3.37207H425.7793a3.35019,3.35019,0,0,1,3.34131,3.31641l.2666,35.41016A8.63784,8.63784,0,0,1,426.8623,59.92109ZM42.40918,233.76191a2.50137,2.50137,0,0,1-3.84912-2.10156V216.46211a23.67261,23.67261,0,0,0,13.05176-7.82324A46.07783,46.07783,0,0,1,65.4502,197.3166c.8872-.457,1.79394-.96289,2.70117-1.50684,11.47705-6.89648,15.36816-13.95117,18.80127-20.1748,3.00293-5.44434,5.375-9.74512,13.39306-14.5625s12.92871-4.89258,19.146-4.98828c7.10742-.10938,15.16357-.23242,26.64111-7.12891,11.477-6.89648,15.36865-13.95019,18.80176-20.1748,3.00342-5.44434,5.37549-9.74512,13.39355-14.5625,8.019-4.81836,12.93018-4.89356,19.14795-4.98926,7.10791-.11035,15.16407-.23438,26.64307-7.13086,10.85889-6.52441,14.87354-14.81152,18.09912-21.4707,3.30567-6.82325,5.30029-10.94141,13.86377-13.16993,5.44776-1.416,5.96387-1.29687,10.28565,8.26758,3.56738,7.89649,8.45312,18.71,21.16455,26.35059,6.68994,4.02246,15.09423,5.13086,23.22168,6.20312,8.00341,1.05567,16.27929,2.14746,22.51757,5.89649,4.71778,2.83594,8.80713,8.56543,13.13623,14.63086,5.32129,7.45508,10.82325,15.165,19.00831,20.084,7.78125,4.67578,16.90966,5.88281,25.73828,7.04981,7.65332,1.01269,14.88281,1.96777,20.00586,5.04687,5.4956,3.30274,9.86816,9.42578,14.49707,15.90918,5.03808,7.05567,10.24707,14.35156,17.65332,18.80078q.77636.4673,1.5791.90137a41.98278,41.98278,0,0,1,13.54687,11.12695,23.54514,23.54514,0,0,0,14.76368,8.93262V234.01a2.49507,2.49507,0,0,1-3.86182,2.0918L264.27881,102.75312a7.58884,7.58884,0,0,0-.833-.46972,17.39652,17.39652,0,0,0-15.1001-.03516,7.59826,7.59826,0,0,0-.814.45117Zm277.231,176.6377a7.49974,7.49974,0,0,0,7.5-7.5V319.03047a37.54226,37.54226,0,0,0-37.5-37.5H222.12988a37.54226,37.54226,0,0,0-37.5,37.5V426.18135c-7.78851-3.03223-17.05554-5.12647-29.63867-4.91163-18.77832.33692-30.78223,5.65625-41.37256,10.34864-6.71917,2.97754-12.83124,5.67627-20.31689,7.19238V412.84883A146.72411,146.72411,0,0,0,129.83252,400.842c6.1709-2.94531,7.60937-11.46289,5.041-17.26562L88.56348,278.98555c-3.827-8.644-8.533-12.832-12.68067-14.79493V230.175l179.20069-114.5a2.44489,2.44489,0,0,1,1.55371.001l179.24511,116.5625V440.20234a108.088,108.088,0,0,1-11.43994,1.15137c-17.66748.78613-28.292-3.0459-40.59619-7.47949-12.32178-4.44141-26.27441-9.47071-48.34814-9.47071-.13819,0-.28028.001-.41895.001-25.75049.07422-40.46728,6.83789-53.45166,12.80566-12.64014,5.80957-23.55713,10.82715-43.73828,9.168-17.91162-1.47265-27.53027-6.832-37.71387-12.50683q-.27237-.15162-.54541-.30371V319.03047a22.52554,22.52554,0,0,1,22.5-22.5h67.51026a22.52554,22.52554,0,0,1,22.5,22.5v83.86914A7.49974,7.49974,0,0,0,319.64014,410.39961ZM17.09131,388.55781l45.82666-103.5c2.50342-5.65332,5.09961-7.48242,5.96484-7.48242s3.46192,1.8291,5.96485,7.48242l45.82714,103.501a125.25241,125.25241,0,0,1-51.04,11.55078,116.37549,116.37549,0,0,1-16.25818-1.00733,7.40878,7.40878,0,0,0-.75635-.104A129.12853,129.12853,0,0,1,17.09131,388.55781Zm61.21045,26.20947v25.28321a79.00815,79.00815,0,0,1-11.87354-1.16162,57.83031,57.83031,0,0,0-6.96289-.78321V414.76435c3.13642.22266,6.2768.34815,9.42041.34815.28076,0,.564-.001.84473-.00293C72.59021,415.0915,75.44757,414.97041,78.30176,414.76728ZM497,494.50019a2.50263,2.50263,0,0,1-2.5,2.5H17.5a2.50263,2.50263,0,0,1-2.5-2.5v-.457a40.74816,40.74816,0,0,1,14.58252-31.29492A41.65972,41.65972,0,0,1,56.41357,453.01a42.64948,42.64948,0,0,1,7.40723.65039A92.07973,92.07973,0,0,0,81.23,455.08027c1.75183-.02344,3.42444-.10693,5.05359-.22363.11218-.00684.22534-.01025.33618-.022,13.98157-1.05567,23.67682-5.33789,33.07556-9.50245,10.19287-4.5166,19.82031-8.78222,35.56494-9.06445,17.82764-.333,26.99561,4.79,37.61377,10.707,10.61133,5.91211,22.63868,12.61426,43.78565,14.35254,24.1001,1.98731,37.89355-4.35742,51.23193-10.4873,12.1626-5.59082,24.73975-11.3711,47.23047-11.43555.13232,0,.26172-.001.39307-.001,19.43261,0,31.00293,4.16993,43.2456,8.582,12.64453,4.55664,25.72071,9.27441,46.34815,8.35253a124.34445,124.34445,0,0,0,21.38427-2.84277,41.57957,41.57957,0,0,1,35.2168,8.12793A40.69436,40.69436,0,0,1,497,493.5207Z"></path></svg>